<svg viewBox="0 0 15 16" fill="none" xmlns="http://www.w3.org/2000/svg"><path d="M0.375 2.33991C0.375 1.81879 0.571666 1.319 0.921734 0.950509C1.2718 0.582017 1.7466 0.375 2.24167 0.375H12.9087C12.9703 0.375 13.0021 0.375 13.0273 0.377947C13.1322 0.390594 13.2299 0.440332 13.3045 0.51903C13.3791 0.597729 13.4262 0.700733 13.4379 0.81121C13.4417 0.852676 13.4429 0.894351 13.4417 0.935983C13.4417 1.327 13.4417 1.52251 13.4239 1.68756C13.3529 2.35099 13.0699 2.96936 12.6215 3.44145C12.173 3.91354 11.5855 4.21136 10.9553 4.28616C10.7985 4.30482 10.6127 4.30482 10.2413 4.30482H10.175M0.375 2.33991C0.375 2.86104 0.571666 3.36082 0.921734 3.72932C1.2718 4.09781 1.7466 4.30482 2.24167 4.30482H12.5083C13.3885 4.30482 13.8281 4.30482 14.1015 4.59268C14.375 4.88054 14.375 5.34328 14.375 6.26974V8.23465M0.375 2.33991V11.182C0.375 13.0349 0.375 13.9604 0.921933 14.5361C1.46887 15.1118 2.34807 15.1118 4.10833 15.1118H12.5083C13.3885 15.1118 13.8281 15.1118 14.1015 14.824C14.375 14.5361 14.375 14.0734 14.375 13.1469V12.1645M14.375 8.23465H12.5083C11.6282 8.23465 11.1886 8.23465 10.9151 8.52251C10.6417 8.81037 10.6417 9.27311 10.6417 10.1996C10.6417 11.126 10.6417 11.5888 10.9151 11.8766C11.1886 12.1645 11.6282 12.1645 12.5083 12.1645H14.375M14.375 8.23465V12.1645" stroke="#0E7A5F" stroke-width="0.75"></path></svg>
