<svg width="219" height="62" viewBox="0 0 219 62" fill="none" xmlns="http://www.w3.org/2000/svg">
<path d="M59.5708 16.9391H64.145C61.73 12.1166 58.0845 8.01251 53.5745 5.03915C49.0644 2.06579 43.8488 0.327878 38.4517 0V4.01755C42.7559 4.31563 46.9241 5.64625 50.6013 7.89609C54.2785 10.1459 57.3556 13.2483 59.5708 16.9391Z" fill="#3CB4E5"/>
<path d="M13.6636 44.2741H9.08936C11.5038 49.0969 15.1493 53.2013 19.6594 56.1747C24.1695 59.1482 29.3853 60.8859 34.7827 61.2132V57.1984C30.4785 56.9003 26.3104 55.5693 22.6336 53.3189C18.9568 51.0685 15.8804 47.9654 13.6664 44.2741" fill="#A2D45E"/>
<path d="M38.4517 57.1984V61.2132C43.849 60.8859 49.0648 59.1482 53.5749 56.1747C58.085 53.2013 61.7305 49.0969 64.145 44.2741H59.5708C57.3563 47.9657 54.2794 51.0689 50.6021 53.3193C46.9249 55.5696 42.7563 56.9005 38.4517 57.1984Z" fill="#4A8B2C"/>
<path d="M34.7828 4.01756V0.00280762C29.3862 0.330056 24.171 2.06744 19.6614 5.04036C15.1518 8.01327 11.5067 12.117 9.09229 16.9391H13.6665C15.8806 13.2481 18.9572 10.1454 22.634 7.89551C26.3108 5.6456 30.4788 4.31515 34.7828 4.01756Z" fill="#007CBA"/>
<path d="M8.0917 32.5846L10.3003 27.8351L12.5061 32.5846H8.0917ZM11.228 20.599H9.36976L0 40.6142H4.35554L6.39879 36.2194H14.199L16.245 40.6142H20.5978L11.228 20.599Z" fill="#004D71"/>
<path d="M28.9866 36.2194H26.1166V25.1921H28.9866C29.7235 25.1756 30.4563 25.306 31.1419 25.5756C31.8275 25.8453 32.4521 26.2488 32.9791 26.7624C33.5061 27.276 33.9249 27.8895 34.2108 28.5666C34.4966 29.2438 34.6439 29.9711 34.6439 30.7058C34.6439 31.4405 34.4966 32.1678 34.2108 32.8449C33.9249 33.5221 33.5061 34.1355 32.9791 34.6492C32.4521 35.1628 31.8275 35.5663 31.1419 35.8359C30.4563 36.1056 29.7235 36.236 28.9866 36.2194ZM28.9586 20.599H19.8047V21.1969C19.8047 21.1969 21.6517 21.4456 21.6517 24.6809V40.6058H28.9586C31.6213 40.6058 34.1749 39.5514 36.0577 37.6746C37.9405 35.7979 38.9983 33.2524 38.9983 30.5982C38.9983 27.9441 37.9405 25.3986 36.0577 23.5218C34.1749 21.645 31.6213 20.5907 28.9586 20.5907" fill="#004D71"/>
<path d="M52.5947 25.1921V20.599H38.561V21.1969C38.561 21.1969 40.4081 21.4456 40.4081 24.6808V40.6058H44.8926V32.8277H50.7785V29.1957H44.8926V25.1921H52.5947Z" fill="#004D71"/>
<path d="M63.223 36.2194H60.3529V25.1921H63.223C63.9599 25.1756 64.6926 25.306 65.3782 25.5756C66.0639 25.8453 66.6885 26.2488 67.2155 26.7624C67.7425 27.276 68.1612 27.8895 68.4471 28.5666C68.733 29.2438 68.8803 29.9711 68.8803 30.7058C68.8803 31.4405 68.733 32.1678 68.4471 32.8449C68.1612 33.5221 67.7425 34.1355 67.2155 34.6492C66.6885 35.1628 66.0639 35.5663 65.3782 35.8359C64.6926 36.1056 63.9599 36.236 63.223 36.2194ZM63.195 20.599H54.041V21.1969C54.041 21.1969 55.8881 21.4456 55.8881 24.6809V40.6058H63.195C65.8577 40.6058 68.4113 39.5514 70.2941 37.6746C72.1769 35.7979 73.2346 33.2524 73.2346 30.5982C73.2346 27.9441 72.1769 25.3986 70.2941 23.5218C68.4113 21.645 65.8577 20.5907 63.195 20.5907" fill="#004D71"/>
<path d="M81.7016 21.8563C81.8021 21.9171 81.9175 21.949 82.0351 21.9485C82.151 21.9498 82.2649 21.9178 82.3631 21.8563C82.4618 21.7969 82.5445 21.7144 82.6041 21.616C82.6626 21.5179 82.6935 21.406 82.6938 21.2919C82.6949 21.1727 82.665 21.0552 82.6069 20.9511C82.55 20.8491 82.4668 20.7642 82.3659 20.7052C82.2665 20.644 82.1519 20.612 82.0351 20.613C81.9175 20.6124 81.8021 20.6443 81.7016 20.7052C81.5991 20.7641 81.514 20.8489 81.4549 20.9511C81.396 21.055 81.365 21.1725 81.3652 21.2919C81.365 21.4064 81.3971 21.5187 81.4577 21.616C81.5191 21.7139 81.6026 21.7962 81.7016 21.8563Z" fill="#004D71"/>
<path d="M83.3245 21.8562C83.4292 21.9169 83.5482 21.9487 83.6692 21.9484C83.7842 21.949 83.8969 21.917 83.9943 21.8562C84.094 21.7959 84.1777 21.7126 84.2382 21.6132C84.2972 21.5164 84.3283 21.4052 84.3279 21.2919C84.3291 21.1727 84.2991 21.0552 84.241 20.951C84.1814 20.8502 84.0976 20.7658 83.9972 20.7052C83.8987 20.6444 83.7851 20.6124 83.6692 20.613C83.5482 20.6128 83.4292 20.6446 83.3245 20.7052C83.2195 20.7638 83.1317 20.8485 83.0694 20.951C83.0075 21.054 82.9746 21.1718 82.9741 21.2919C82.9751 21.4066 83.0081 21.5189 83.0694 21.616C83.1335 21.7157 83.221 21.7982 83.3245 21.8562Z" fill="#004D71"/>
<path d="M94.2023 28.2793C94.1028 28.2185 93.9882 28.1866 93.8715 28.1871C93.7531 28.1869 93.6368 28.2187 93.5352 28.2793C93.4329 28.3375 93.3486 28.4226 93.2913 28.5252C93.232 28.628 93.201 28.7446 93.2017 28.8632C93.2015 28.9778 93.2335 29.09 93.2941 29.1873C93.3539 29.2865 93.4378 29.3691 93.538 29.4276C93.6385 29.4884 93.7539 29.5204 93.8715 29.5198C93.9874 29.5207 94.1011 29.4887 94.1995 29.4276C94.2995 29.3699 94.3826 29.287 94.4405 29.1873C94.499 29.0892 94.53 28.9773 94.5302 28.8632C94.5317 28.7449 94.5017 28.6282 94.4433 28.5252C94.3872 28.4227 94.3038 28.3376 94.2023 28.2793Z" fill="#004D71"/>
<path d="M95.8448 28.2793C95.7462 28.2189 95.6326 28.187 95.5169 28.1871C95.3958 28.1873 95.277 28.2191 95.1721 28.2793C95.0666 28.337 94.9785 28.4219 94.9171 28.5252C94.8549 28.627 94.8219 28.744 94.8218 28.8632C94.8227 28.978 94.8557 29.0902 94.9171 29.1873C94.9796 29.2882 95.0675 29.3711 95.1721 29.4276C95.277 29.4878 95.3958 29.5196 95.5169 29.5198C95.6318 29.5203 95.7445 29.4883 95.842 29.4276C95.9421 29.3688 96.0252 29.285 96.083 29.1845C96.1429 29.0879 96.1749 28.9768 96.1756 28.8632C96.1774 28.7445 96.1464 28.6275 96.0858 28.5252C96.0289 28.4232 95.9457 28.3384 95.8448 28.2793Z" fill="#004D71"/>
<path d="M108.83 21.8563C108.93 21.9171 109.046 21.9491 109.164 21.9485C109.279 21.949 109.393 21.9171 109.491 21.8563C109.59 21.7969 109.673 21.7144 109.733 21.616C109.791 21.5179 109.822 21.406 109.822 21.2919C109.822 21.1729 109.792 21.0557 109.735 20.9511C109.678 20.8491 109.595 20.7643 109.494 20.7052C109.395 20.6444 109.28 20.6125 109.164 20.613C109.045 20.6125 108.929 20.6444 108.827 20.7052C108.726 20.7642 108.641 20.849 108.583 20.9511C108.524 21.055 108.493 21.1725 108.494 21.2919C108.493 21.4064 108.525 21.5187 108.586 21.616C108.648 21.714 108.731 21.7962 108.83 21.8563Z" fill="#004D71"/>
<path d="M115.633 21.8562C115.737 21.9172 115.856 21.9491 115.977 21.9484C116.092 21.9489 116.205 21.917 116.302 21.8562C116.402 21.7967 116.485 21.7131 116.543 21.6132C116.603 21.5166 116.635 21.4054 116.636 21.2919C116.637 21.1727 116.607 21.0552 116.549 20.951C116.489 20.8502 116.406 20.7658 116.305 20.7052C116.207 20.6448 116.093 20.6129 115.977 20.613C115.856 20.6123 115.737 20.6442 115.633 20.7052C115.528 20.7638 115.44 20.8485 115.378 20.951C115.316 21.054 115.283 21.1718 115.282 21.2919C115.283 21.4066 115.316 21.5189 115.378 21.616C115.442 21.7157 115.529 21.7982 115.633 21.8562Z" fill="#004D71"/>
<path d="M114.01 21.8563C114.11 21.9171 114.226 21.949 114.343 21.9485C114.459 21.9498 114.573 21.9178 114.671 21.8563C114.77 21.7969 114.853 21.7144 114.912 21.616C114.971 21.5179 115.002 21.406 115.002 21.2919C115.003 21.1727 114.973 21.0552 114.915 20.9511C114.858 20.8491 114.775 20.7642 114.674 20.7052C114.575 20.644 114.46 20.612 114.343 20.613C114.226 20.6124 114.11 20.6443 114.01 20.7052C113.907 20.7632 113.821 20.8482 113.763 20.9511C113.704 21.055 113.673 21.1725 113.673 21.2919C113.673 21.4064 113.705 21.5187 113.766 21.616C113.827 21.7139 113.911 21.7962 114.01 21.8563Z" fill="#004D71"/>
<path d="M102.863 26.3683H100.988V24.0969H101.829C102.11 24.0724 102.39 24.1564 102.611 24.3316C102.7 24.4335 102.768 24.5524 102.81 24.6811C102.852 24.8098 102.867 24.9456 102.855 25.0804L102.863 26.3683ZM83.5432 26.3683H81.6681V25.0804C81.6558 24.9456 81.6711 24.8098 81.713 24.6811C81.755 24.5524 81.8226 24.4335 81.912 24.3316C82.1328 24.1564 82.4127 24.0724 82.6939 24.0969H83.5348L83.5432 26.3683ZM125.818 26.3683H121.516V20.613H120.218V26.3683H115.708V22.8956H114.419V26.3683H109.791V22.8956H108.497V26.3683H104.152V24.9518C104.152 23.5791 103.485 22.8937 102.151 22.8956H99.6818V26.3683H95.4019V22.8956H94.1154V26.3683H84.8409V22.8956H82.3744C81.6934 22.8956 81.1888 23.0688 80.8637 23.4208C80.5113 23.8505 80.3368 24.3982 80.376 24.9518V27.5697H127.107V20.613H125.809L125.818 26.3683Z" fill="#004D71"/>
<path d="M134.635 30.2797C134.537 30.2193 134.423 30.1874 134.307 30.1875C134.186 30.1873 134.067 30.2191 133.963 30.2797C133.858 30.3383 133.77 30.423 133.708 30.5256C133.646 30.6276 133.613 30.7444 133.612 30.8636C133.613 30.9785 133.646 31.0908 133.708 31.1877C133.771 31.2889 133.858 31.3725 133.963 31.4308C134.068 31.4906 134.187 31.5214 134.307 31.5202C134.422 31.5217 134.535 31.4907 134.633 31.4308C134.733 31.3702 134.817 31.2857 134.876 31.1849C134.936 31.0883 134.967 30.977 134.966 30.8636C134.968 30.7449 134.937 30.628 134.876 30.5256C134.819 30.4243 134.736 30.3396 134.635 30.2797Z" fill="#004D71"/>
<path d="M133.005 30.2797C132.905 30.219 132.791 30.187 132.674 30.1875C132.555 30.1873 132.439 30.2192 132.337 30.2797C132.236 30.3387 132.152 30.4236 132.094 30.5256C132.035 30.6285 132.004 30.7451 132.004 30.8637C132.003 30.9782 132.035 31.0906 132.096 31.1877C132.157 31.2871 132.241 31.3705 132.34 31.4308C132.441 31.4908 132.556 31.5218 132.674 31.5202C132.79 31.5217 132.905 31.4907 133.005 31.4308C133.103 31.3703 133.184 31.2869 133.243 31.1877C133.302 31.0898 133.333 30.9778 133.332 30.8637C133.334 30.7453 133.304 30.6288 133.246 30.5256C133.189 30.4237 133.105 30.3388 133.005 30.2797Z" fill="#004D71"/>
<path d="M149.314 28.2681C149.211 28.207 149.094 28.1751 148.975 28.176C148.86 28.1757 148.747 28.2077 148.649 28.2681C148.549 28.3273 148.465 28.4114 148.407 28.5122C148.348 28.6131 148.317 28.7272 148.316 28.8437C148.316 28.9613 148.347 29.0767 148.406 29.1789C148.463 29.2824 148.547 29.3684 148.649 29.4276C148.747 29.4881 148.86 29.52 148.975 29.5198C149.094 29.5207 149.211 29.4888 149.314 29.4276C149.415 29.3671 149.499 29.2815 149.556 29.1792C149.614 29.0768 149.645 28.9612 149.644 28.8437C149.645 28.7269 149.614 28.6122 149.555 28.5112C149.496 28.4113 149.413 28.3277 149.314 28.2681Z" fill="#004D71"/>
<path d="M157.1 21.8562C157.199 21.9174 157.314 21.9494 157.431 21.9484C157.547 21.9489 157.662 21.917 157.761 21.8562C157.859 21.796 157.94 21.7137 158 21.616C158.059 21.5185 158.09 21.4062 158.089 21.2919C158.09 21.1727 158.061 21.0552 158.002 20.951C157.947 20.8507 157.866 20.7666 157.768 20.7072C157.669 20.6479 157.557 20.6154 157.442 20.613C157.324 20.6124 157.209 20.6443 157.108 20.7052C157.006 20.7641 156.921 20.8489 156.862 20.951C156.803 21.055 156.772 21.1724 156.772 21.2919C156.772 21.4064 156.804 21.5187 156.864 21.616C156.926 21.7147 157.011 21.7971 157.111 21.8562" fill="#004D71"/>
<path d="M159.704 26.3683H154.973V24.0969H158.667C158.948 24.0727 159.228 24.1567 159.449 24.3316C159.538 24.4335 159.606 24.5524 159.648 24.6811C159.69 24.8098 159.705 24.9456 159.693 25.0804L159.704 26.3683ZM159.001 22.8956H154.973V20.613H153.686V26.3683H149.625V22.8956H148.339V26.3683H139.392V22.8956H137.15C135.814 22.8956 135.145 23.581 135.143 24.9518V26.5471C135.173 27.0853 135.039 27.62 134.759 28.081C134.504 28.4497 134.058 28.6397 133.428 28.6397C132.797 28.6397 132.351 28.4553 132.096 28.081C131.814 27.6209 131.679 27.0857 131.71 26.5471V24.3121H130.418V27.0025C130.401 27.5349 130.521 28.0627 130.765 28.5364C130.995 28.9578 131.353 29.2954 131.788 29.5002C132.308 29.7159 132.866 29.827 133.429 29.827C133.992 29.827 134.55 29.7159 135.07 29.5002C135.505 29.2946 135.863 28.9572 136.093 28.5364C136.338 28.0627 136.457 27.5349 136.441 27.0025V25.0804C136.428 24.9454 136.444 24.8093 136.486 24.6804C136.528 24.5516 136.597 24.4329 136.687 24.3316C136.907 24.1563 137.186 24.0723 137.467 24.0969H138.086V27.5697H160.993V24.9518C160.993 23.5791 160.326 22.8937 158.992 22.8956" fill="#004D71"/>
<path d="M171.663 28.2681C171.562 28.2066 171.446 28.1747 171.327 28.1759C171.211 28.1758 171.098 28.2077 170.999 28.2681C170.899 28.3287 170.815 28.4132 170.755 28.514C170.698 28.6144 170.668 28.7281 170.668 28.8437C170.668 28.961 170.698 29.0765 170.755 29.1789C170.814 29.2811 170.898 29.3667 170.999 29.4276C171.098 29.488 171.211 29.5199 171.327 29.5198C171.446 29.521 171.562 29.4891 171.663 29.4276C171.764 29.367 171.848 29.2825 171.907 29.1817C171.967 29.0789 171.998 28.9623 171.997 28.8437C171.997 28.7269 171.966 28.6121 171.907 28.5112C171.847 28.4118 171.763 28.3285 171.663 28.2681Z" fill="#004D71"/>
<path d="M165.374 26.3683H163.499V25.0804C163.487 24.9454 163.503 24.8095 163.545 24.6807C163.587 24.552 163.656 24.4333 163.746 24.3316C163.966 24.1559 164.246 24.0718 164.528 24.0969H165.368L165.374 26.3683ZM171.019 26.3683H166.672V22.8956H164.205C162.869 22.8956 162.201 23.581 162.201 24.9518V27.5697H165.366C165.373 27.7837 165.348 27.9976 165.29 28.2039C165.268 28.2739 165.232 28.3386 165.184 28.3939C165.135 28.4492 165.076 28.4939 165.01 28.5252C164.827 28.6009 164.63 28.6343 164.432 28.623H162.944V29.8299H164.553C164.985 29.8506 165.415 29.754 165.797 29.5505C166.093 29.3772 166.319 29.1079 166.439 28.7878C166.577 28.3934 166.648 27.9789 166.649 27.5613H172.294V22.8956H171.005L171.019 26.3683Z" fill="#004D71"/>
<path d="M174.096 18.6545C174.086 18.5605 174.113 18.4662 174.172 18.3919C174.211 18.3613 174.256 18.3388 174.304 18.3259C174.352 18.3129 174.403 18.3097 174.452 18.3165H175.091V17.7158H174.432C174.167 17.6909 173.903 17.7679 173.692 17.9309C173.61 18.0269 173.548 18.1385 173.51 18.259C173.472 18.3795 173.459 18.5065 173.471 18.6322V19.1909H172.992V19.8H175.234V19.2049H174.113L174.096 18.6545Z" fill="#004D71"/>
<path d="M174.965 20.613H173.667V27.5697H174.965V20.613Z" fill="#004D71"/>
<path d="M184.08 20.7108C184.184 20.7718 184.303 20.8036 184.425 20.803C184.54 20.8032 184.652 20.7713 184.75 20.7108C184.85 20.6502 184.934 20.5658 184.994 20.4649C185.052 20.3679 185.083 20.2569 185.083 20.1436C185.085 20.0249 185.054 19.908 184.994 19.8056C184.936 19.7043 184.853 19.6196 184.753 19.5597C184.654 19.4996 184.54 19.4677 184.425 19.4675C184.303 19.4669 184.184 19.4987 184.08 19.5597C183.975 19.6183 183.887 19.703 183.825 19.8056C183.762 19.907 183.729 20.0242 183.73 20.1436C183.728 20.2587 183.761 20.3716 183.825 20.4677C183.888 20.5689 183.976 20.6525 184.08 20.7108Z" fill="#004D71"/>
<path d="M182.457 20.7108C182.557 20.7717 182.673 20.8036 182.79 20.803C182.907 20.8035 183.022 20.7716 183.121 20.7108C183.219 20.6503 183.301 20.5669 183.359 20.4677C183.42 20.3705 183.451 20.258 183.449 20.1436C183.45 20.0253 183.42 19.9088 183.362 19.8056C183.305 19.7037 183.222 19.6188 183.121 19.5597C183.022 19.499 182.907 19.467 182.79 19.4675C182.672 19.4673 182.556 19.4992 182.454 19.5597C182.352 19.6187 182.268 19.7036 182.21 19.8056C182.151 19.9085 182.12 20.0251 182.121 20.1436C182.12 20.2583 182.152 20.3708 182.213 20.4677C182.274 20.5671 182.357 20.6505 182.457 20.7108Z" fill="#004D71"/>
<path d="M184.307 22.8956V25.1725H182.437V23.8762C182.426 23.7423 182.441 23.6075 182.483 23.4797C182.525 23.352 182.592 23.2341 182.681 23.133C182.9 22.9551 183.179 22.8699 183.46 22.8956H184.307ZM181.625 22.2194C181.274 22.6498 181.1 23.1972 181.14 23.7505V26.3683H184.298C184.316 26.854 184.169 27.3314 183.881 27.7233C183.62 28.0306 183.183 28.1871 182.572 28.1871H181.014C180.785 28.207 180.555 28.1787 180.338 28.1041C180.121 28.0295 179.923 27.9102 179.755 27.7541C179.461 27.3712 179.319 26.8936 179.357 26.413V25.519H178.065V26.4046C178.065 27.4477 178.312 28.2271 178.805 28.7431C179.298 29.2627 180.052 29.5198 181.064 29.5198H182.6C183.575 29.5198 184.318 29.2488 184.828 28.7068C185.338 28.1675 185.596 27.3853 185.596 26.3683V21.697H183.13C182.446 21.697 181.941 21.873 181.616 22.2194" fill="#004D71"/>
<path d="M190.235 24.0969V26.3683H188.36V25.0804C188.347 24.9456 188.363 24.8098 188.404 24.6811C188.446 24.5524 188.514 24.4335 188.603 24.3316C188.824 24.1566 189.104 24.0727 189.385 24.0969H190.235ZM187.062 24.9518V27.5697H190.223C190.23 27.7844 190.206 27.999 190.151 28.2067C190.128 28.2769 190.091 28.342 190.043 28.3981C189.995 28.4542 189.936 28.5002 189.87 28.5336C189.693 28.6081 189.502 28.6425 189.31 28.6341H187.816V29.8299H189.425C189.881 29.8572 190.336 29.7493 190.731 29.5198C191.036 29.315 191.26 29.0093 191.361 28.6565C191.485 28.2013 191.541 27.7308 191.53 27.2596V22.8956H189.06C187.726 22.8956 187.059 23.581 187.059 24.9518" fill="#004D71"/>
<path d="M206.659 21.8562C206.758 21.917 206.873 21.9489 206.99 21.9484C207.106 21.9494 207.221 21.9174 207.32 21.8562C207.419 21.7961 207.501 21.7138 207.561 21.616C207.619 21.5177 207.649 21.4057 207.648 21.2919C207.65 21.1727 207.62 21.0552 207.561 20.951C207.506 20.8493 207.423 20.7644 207.323 20.7052C207.223 20.6443 207.107 20.6124 206.99 20.613C206.872 20.6128 206.757 20.6447 206.656 20.7052C206.553 20.7645 206.468 20.8501 206.408 20.9532C206.349 21.0563 206.319 21.1732 206.32 21.2919C206.32 21.4064 206.352 21.5187 206.412 21.616C206.474 21.7147 206.559 21.7971 206.659 21.8562Z" fill="#004D71"/>
<path d="M217.699 26.3683H212.968V24.0969H216.685C216.966 24.0718 217.246 24.1559 217.467 24.3316C217.557 24.4329 217.626 24.5516 217.668 24.6804C217.71 24.8092 217.726 24.9454 217.713 25.0804L217.699 26.3683ZM216.993 22.8956H211.668V26.3683H207.618V22.8956H206.328V26.3683H197.359V24.9518C197.399 24.3982 197.224 23.8505 196.872 23.4208C196.547 23.0688 196.031 22.8956 195.364 22.8956H193.346V24.0969H195.027C195.308 24.0717 195.587 24.1558 195.807 24.3316C195.896 24.4335 195.964 24.5524 196.006 24.6811C196.047 24.8098 196.063 24.9456 196.05 25.0804V26.3683H192.581V27.5697H219V24.9518C219 23.5791 218.332 22.8937 216.996 22.8956" fill="#004D71"/>
<path d="M82.9487 35.2416L82.2705 38.0801H83.6074L82.9487 35.2416ZM84.1932 40.6169L83.854 39.139H82.0238L81.6651 40.6169H80.4038L82.2144 34.1017H83.7335L85.5021 40.6169H84.1932Z" fill="#004D71"/>
<path d="M88.0923 39.5776C88.7445 39.5776 89.0705 39.2675 89.0705 38.6473C89.0797 38.5207 89.0625 38.3935 89.02 38.2738C88.9776 38.1541 88.9109 38.0444 88.8239 37.9516C88.6264 37.7816 88.3695 37.6963 88.1092 37.7141H87.4057V39.5776H88.0923ZM88.0475 36.7391C88.1591 36.7468 88.2711 36.7317 88.3767 36.6947C88.4822 36.6577 88.5791 36.5996 88.6613 36.524C88.8093 36.3577 88.8849 36.1396 88.8715 35.9177C88.8715 35.4008 88.5913 35.141 87.9999 35.141H87.4057V36.7391H88.0475ZM86.2061 40.617V34.1017H88.1288C88.6505 34.0713 89.1661 34.2268 89.5835 34.5403C89.8627 34.7919 90.0451 35.1327 90.0994 35.504C90.1536 35.8753 90.0762 36.2538 89.8805 36.5743C89.7093 36.8267 89.4704 37.0261 89.1911 37.1498C89.5285 37.2613 89.8225 37.4753 90.0319 37.7616C90.2304 38.0447 90.3344 38.383 90.329 38.7283C90.3447 38.988 90.3027 39.2479 90.2057 39.4894C90.1088 39.7309 89.9595 39.948 89.7684 40.1252C89.3274 40.4795 88.77 40.6577 88.2045 40.6253L86.2061 40.617Z" fill="#004D71"/>
<path d="M94.2333 34.1017H95.5254V38.2925C95.5254 39.1027 95.3385 39.721 94.9648 40.1476C94.5203 40.5624 93.9341 40.7932 93.3252 40.7932C92.7163 40.7932 92.1301 40.5624 91.6856 40.1476C91.3119 39.7192 91.125 39.1008 91.125 38.2925V34.1017H92.4143V38.3735C92.3906 38.7046 92.4689 39.035 92.6385 39.3206C92.7191 39.4255 92.8245 39.5087 92.9454 39.5628C93.0662 39.617 93.1987 39.6403 93.3308 39.6307C93.4626 39.6406 93.5947 39.6174 93.7152 39.5632C93.8356 39.509 93.9405 39.4256 94.0203 39.3206C94.1911 39.0354 94.2694 38.7047 94.2445 38.3735L94.2333 34.1017Z" fill="#004D71"/>
<path d="M100.102 39.4686C101.005 39.4686 101.456 38.7562 101.456 37.3314C101.456 35.9456 101.026 35.2527 100.167 35.2527H99.5446V39.4686H100.102ZM98.2524 40.6169V34.1017H100.119C100.494 34.0798 100.868 34.144 101.213 34.2893C101.559 34.4347 101.866 34.6572 102.112 34.9398C102.572 35.4986 102.804 36.2837 102.804 37.3258C102.804 38.3679 102.56 39.1753 102.075 39.7564C101.827 40.0471 101.515 40.277 101.163 40.4281C100.811 40.5793 100.429 40.6477 100.046 40.6281L98.2524 40.6169Z" fill="#004D71"/>
<path d="M106.969 40.6169V37.8315H105.108V40.6169H103.819V34.1017H105.108V36.6469H106.969V34.1017H108.258V40.6169H106.969Z" fill="#004D71"/>
<path d="M111.51 35.2416L110.831 38.0801H112.168L111.51 35.2416ZM112.754 40.6169L112.415 39.139H110.585L110.226 40.6169H108.965L110.775 34.1017H112.295L114.063 40.6169H112.754Z" fill="#004D71"/>
<path d="M116.653 39.5777C117.307 39.5777 117.633 39.2675 117.631 38.6473C117.64 38.5207 117.623 38.3935 117.581 38.2738C117.538 38.1541 117.471 38.0444 117.384 37.9516C117.187 37.7816 116.93 37.6963 116.67 37.7142H115.966V39.5777H116.653ZM116.608 36.7391C116.72 36.7468 116.832 36.7317 116.937 36.6947C117.043 36.6577 117.14 36.5996 117.222 36.524C117.369 36.3572 117.443 36.1392 117.429 35.9177C117.429 35.4008 117.149 35.141 116.56 35.141H115.966V36.7391H116.608ZM114.767 40.617V34.1017H116.689C117.211 34.0713 117.727 34.2268 118.144 34.5403C118.423 34.7919 118.606 35.1327 118.66 35.504C118.714 35.8753 118.637 36.2538 118.441 36.5743C118.27 36.8267 118.031 37.0261 117.752 37.1498C118.09 37.26 118.384 37.4742 118.592 37.7617C118.792 38.0441 118.896 38.3828 118.89 38.7283C118.905 38.988 118.863 39.2479 118.766 39.4894C118.669 39.7309 118.52 39.948 118.329 40.1252C117.887 40.4799 117.329 40.6581 116.762 40.6253L114.767 40.617Z" fill="#004D71"/>
<path d="M121.076 34.1017H119.784V40.6169H121.076V34.1017Z" fill="#004D71"/>
<path d="M123.912 40.6169V34.1017H127.382V35.25H125.201V36.8201H127.233V37.9712H125.201V40.6169H123.912Z" fill="#004D71"/>
<path d="M131.261 34.1017H132.553V38.2925C132.553 39.1027 132.366 39.721 131.992 40.1476C131.548 40.5622 130.963 40.7929 130.354 40.7929C129.746 40.7929 129.16 40.5622 128.716 40.1476C128.342 39.7192 128.155 39.1008 128.155 38.2925V34.1017H129.447V38.3735C129.424 38.7046 129.502 39.035 129.672 39.3206C129.758 39.4182 129.864 39.4963 129.984 39.5498C130.103 39.6033 130.232 39.631 130.362 39.631C130.493 39.631 130.622 39.6033 130.741 39.5498C130.861 39.4963 130.967 39.4182 131.053 39.3206C131.224 39.0354 131.303 38.7047 131.278 38.3735L131.261 34.1017Z" fill="#004D71"/>
<path d="M136.855 40.6169L134.877 36.3563V40.6169H133.705V34.1017H134.913L136.892 38.3623V34.1017H138.063V40.6169H136.855Z" fill="#004D71"/>
<path d="M141.175 39.4687C142.077 39.4687 142.529 38.7562 142.531 37.3314C142.531 35.9456 142.101 35.2528 141.239 35.2528H140.617V39.4687H141.175ZM139.328 40.6169V34.1017H141.194C141.568 34.08 141.942 34.1444 142.287 34.2897C142.632 34.435 142.939 34.6575 143.184 34.9398C143.644 35.4986 143.877 36.2837 143.877 37.3258C143.877 38.3679 143.633 39.1753 143.148 39.7564C142.9 40.0471 142.588 40.2769 142.237 40.4281C141.885 40.5793 141.504 40.6477 141.121 40.6281L139.328 40.6169Z" fill="#004D71"/>
<path d="M146.466 40.6169V34.1017H149.936V35.25H147.758V36.8201H149.79V37.9712H147.758V40.6169H146.466Z" fill="#004D71"/>
<path d="M153.061 39.6363C153.247 39.6457 153.431 39.599 153.59 39.5023C153.748 39.4056 153.874 39.2634 153.95 39.0943C154.17 38.5425 154.265 37.9492 154.23 37.3565C154.263 36.7666 154.167 36.1767 153.95 35.6271C153.875 35.4607 153.751 35.3207 153.595 35.2255C153.439 35.1303 153.258 35.0843 153.075 35.0935C152.89 35.0852 152.706 35.1324 152.548 35.229C152.389 35.3256 152.264 35.4671 152.187 35.6355C151.824 36.763 151.824 37.9752 152.187 39.1027C152.262 39.2686 152.386 39.4081 152.542 39.5033C152.698 39.5984 152.879 39.6447 153.061 39.6363ZM153.044 40.7874C152.689 40.8074 152.335 40.7387 152.013 40.5875C151.692 40.4362 151.413 40.2072 151.203 39.9213C150.782 39.342 150.572 38.4964 150.572 37.3845C150.572 36.2725 150.787 35.4194 151.217 34.8253C151.432 34.5337 151.717 34.3003 152.045 34.1461C152.373 33.9919 152.735 33.9219 153.098 33.9424C153.453 33.9226 153.807 33.9918 154.129 34.1436C154.451 34.2953 154.729 34.5249 154.939 34.8113C155.359 35.3869 155.57 36.2325 155.57 37.3481C155.57 38.4657 155.357 39.3206 154.925 39.9073C154.709 40.198 154.425 40.4306 154.096 40.5842C153.768 40.7379 153.406 40.8077 153.044 40.7874Z" fill="#004D71"/>
<path d="M158.339 37.1051C158.625 37.1289 158.91 37.0419 159.135 36.862C159.227 36.7611 159.298 36.6423 159.342 36.513C159.386 36.3837 159.404 36.2467 159.392 36.1105C159.403 35.979 159.386 35.8468 159.341 35.7225C159.297 35.5983 159.226 35.4848 159.135 35.3897C158.912 35.2139 158.63 35.129 158.347 35.1522H157.786V37.1079L158.339 37.1051ZM159.555 40.6169L158.594 38.1444C158.552 38.1444 158.456 38.1444 158.313 38.1444H157.801V40.6086H156.576V34.1017H158.442C159.028 34.0624 159.608 34.2428 160.068 34.6074C160.262 34.7953 160.413 35.0232 160.509 35.275C160.606 35.5269 160.647 35.7967 160.629 36.0658C160.634 36.4137 160.552 36.7574 160.39 37.066C160.23 37.3624 159.993 37.6104 159.704 37.784L160.895 40.6114L159.555 40.6169Z" fill="#004D71"/>
<path d="M165.133 39.4687C166.036 39.4687 166.487 38.7562 166.487 37.3314C166.487 35.9456 166.056 35.2528 165.195 35.2528H164.572V39.4687H165.133ZM163.283 40.6169V34.1017H165.15C165.524 34.08 165.898 34.1444 166.243 34.2897C166.588 34.435 166.895 34.6575 167.14 34.9398C167.602 35.4986 167.832 36.2837 167.832 37.3258C167.832 38.3679 167.588 39.1753 167.103 39.7564C166.856 40.0471 166.544 40.2769 166.192 40.4281C165.841 40.5793 165.459 40.6477 165.077 40.6281L163.283 40.6169Z" fill="#004D71"/>
<path d="M168.847 40.6169V34.1017H172.437V35.25H170.139V36.7H172.291V37.851H170.139V39.4659H172.591L172.454 40.6169H168.847Z" fill="#004D71"/>
<path d="M174.716 40.6169L173.031 34.1017H174.413L175.529 39.2368L176.61 34.1017H177.947L176.263 40.6169H174.716Z" fill="#004D71"/>
<path d="M178.651 40.6169V34.1017H182.241V35.25H179.943V36.7H182.093V37.851H179.943V39.4659H182.395L182.258 40.6169H178.651Z" fill="#004D71"/>
<path d="M183.272 40.6169V34.1017H184.565V39.4659H186.863L186.726 40.6169H183.272Z" fill="#004D71"/>
<path d="M189.727 39.6363C189.915 39.645 190.102 39.5961 190.261 39.4962C190.42 39.3963 190.545 39.2502 190.619 39.0775C190.837 38.5253 190.933 37.9324 190.899 37.3397C190.933 36.7498 190.838 36.1595 190.619 35.6104C190.544 35.444 190.42 35.304 190.264 35.2088C190.108 35.1135 189.927 35.0675 189.744 35.0767C189.559 35.0682 189.376 35.1154 189.218 35.212C189.06 35.3087 188.935 35.4504 188.859 35.6187C188.496 36.7462 188.496 37.9584 188.859 39.0859C188.933 39.2523 189.057 39.3923 189.213 39.4875C189.369 39.5827 189.55 39.6287 189.733 39.6195L189.727 39.6363ZM189.713 40.7706C189.359 40.7907 189.005 40.722 188.684 40.5707C188.362 40.4194 188.084 40.1904 187.875 39.9045C187.454 39.3252 187.244 38.4796 187.244 37.3677C187.244 36.2501 187.457 35.3952 187.889 34.8085C188.104 34.5168 188.388 34.2832 188.717 34.129C189.045 33.9748 189.407 33.9049 189.769 33.9257C190.125 33.9061 190.479 33.9754 190.801 34.1271C191.122 34.2789 191.401 34.5083 191.611 34.7946C192.031 35.3701 192.242 36.2157 192.242 37.3314C192.242 38.4489 192.026 39.3038 191.597 39.8905C191.381 40.1813 191.095 40.4139 190.767 40.5675C190.438 40.7211 190.076 40.7909 189.713 40.7706Z" fill="#004D71"/>
<path d="M194.999 37.242C195.672 37.242 196.008 36.8946 196.008 36.1999C196.008 35.5052 195.672 35.168 194.999 35.1885H194.498V37.242H194.999ZM193.25 40.617V34.1017H195.047C195.641 34.0681 196.224 34.2689 196.67 34.6605C196.87 34.8608 197.025 35.101 197.126 35.3653C197.226 35.6296 197.27 35.9121 197.253 36.1943C197.268 36.4825 197.223 36.7705 197.121 37.0407C197.019 37.3108 196.863 37.5571 196.662 37.7644C196.446 37.9618 196.192 38.1141 195.917 38.2125C195.641 38.3108 195.348 38.3532 195.055 38.3372H194.495V40.6281L193.25 40.617Z" fill="#004D71"/>
<path d="M202.589 40.6169V36.2166L201.353 40.6169H200.473L199.248 36.2278V40.6169H198.113V34.1017H199.66L200.941 38.882L202.231 34.1017H203.741V40.6169H202.589Z" fill="#004D71"/>
<path d="M205.005 40.6169V34.1017H208.593V35.25H206.295V36.7H208.447V37.851H206.295V39.4659H208.75L208.613 40.6169H205.005Z" fill="#004D71"/>
<path d="M212.778 40.6169L210.799 36.3563V40.6169H209.627V34.1017H210.838L212.814 38.3623V34.1017H213.986V40.6169H212.778Z" fill="#004D71"/>
<path d="M216.219 40.6169V35.25H214.737V34.1017H218.991V35.25H217.509V40.6169H216.219Z" fill="#004D71"/>
</svg>
